<?xml version="1.0" encoding="utf-8"?>
<!-- Generator: Adobe Illustrator 24.2.3, SVG Export Plug-In . SVG Version: 6.00 Build 0)  -->
<svg version="1.1" id="Layer_1" xmlns="http://www.w3.org/2000/svg" xmlns:xlink="http://www.w3.org/1999/xlink" x="0px" y="0px"
	 viewBox="0 0 538.583 226.772" style="enable-background:new 0 0 538.583 226.772;" xml:space="preserve">
<style type="text/css">
	.st0{fill:#E43E30;}
	.st1{fill:#FFC52F;}
	.st2{fill:#222222;}
	.st3{fill:#00AF9A;}
	.st4{fill:#009A81;}
	.st5{fill:#231F20;}
	.st6{fill:#E75243;}
	.st7{fill:#FFD244;}
	.st8{fill:#FFFFFF;}
	.st9{fill:#00AA90;}
	.st10{fill:#19171C;}
</style>
<g>
	<g id="typo_14_">
		<g>
			<path class="st4" d="M153.821,113.354h46.053v13.627h-29.681v14.26h23.45v13.837h-23.45v15.104h31.055v13.627h-47.426V113.354z"
				/>
			<path class="st4" d="M213.92,113.354h16.372v70.455H213.92V113.354z"/>
			<path class="st4" d="M244.651,113.354h16.372v26.618h2.219l21.125-26.618h20.281l-27.991,32.851l29.575,37.604h-20.597
				l-22.392-29.998h-2.219v29.998h-16.372V113.354z"/>
			<path class="st4" d="M338.438,113.354h16.372v56.828h30.738v13.627h-47.109V113.354z"/>
			<path class="st4" d="M416.272,112.827h15.527l26.197,70.982h-16.584l-4.437-12.676h-26.301l-4.437,12.676h-16.161
				L416.272,112.827z M415.427,157.402h16.794l-8.45-23.871L415.427,157.402z"/>
			<path class="st4" d="M463.171,113.354h26.301c18.168,0,23.871,8.767,23.871,16.901c0,7.183-4.753,11.936-8.556,14.788
				c4.543,2.43,11.514,8.029,11.514,18.275c0,12.464-9.928,20.491-24.082,20.491h-29.048V113.354z M479.542,141.768h13.52
				c0,0,3.274-2.324,3.274-7.288c0-4.014-1.795-7.5-8.45-7.5h-8.344V141.768z M490.633,170.183c6.127,0,8.662-3.168,8.662-7.817
				c0-4.224-2.64-7.498-8.662-7.498h-11.091v15.315H490.633z"/>
		</g>
	</g>
	<g>
		<path class="st4" d="M182.06,25.126l-23.157-10.414c-0.332-0.127-0.565-0.133-0.854-0.139l-18.819,0.488
			c0,0-3.824-4.521-5.146-5.987c-0.277-0.307-0.805-0.851-1.417-0.85L114.09,8.216c-0.146,0-0.63,0-0.932,0.295l-7.504,7.594
			l-6.762-3.894c-0.722-0.44-1.171-0.592-1.759-0.259l-0.205,0.116L75.268,24.314l0,0c-0.568,0.317-1.029,0.842-1.252,1.507
			l-0.175,0.523l-6.22,18.56l0,0l-0.098,0.498c-0.214,1.098-0.054,2.276,0.539,3.329c1.319,2.341,4.511,3.048,6.858,1.741
			c10.961-6.1,21.889-12.914,33.919-16.476c12.094-3.621,25.254-3.928,38.062-4.334c0.591-0.021,1.087-0.486,1.128-1.088
			c0.044-0.644-0.443-1.201-1.086-1.244c-12.946-0.877-26.327-0.845-39.271,1.666c-9.912,1.889-19.412,5.459-28.824,9.1l1.483-9.047
			L96.52,16.441c0.597-0.465,1.456-0.373,1.941,0.208l5.716,6.846c0.075,0.088,0.166,0.185,0.253,0.265
			c1.141,1.052,3.221,1.197,3.972-0.162c1.332-2.412,5.034-9.191,6.255-11.428c0.246-0.451,0.716-0.726,1.229-0.727l14.808-0.006
			c0.56,0,1.067,0.333,1.29,0.847l3.407,7.882c0.353,0.813,1.204,1.483,2.125,1.305c4.448-0.864,17.303-3.346,20-3.867
			c0.325-0.063,0.658-0.008,0.948,0.154l16.228,9.072c0.865,0.484,0.971,1.688,0.202,2.314l-11,8.967
			c-0.296,0.241-0.677,0.351-1.056,0.306l-18.111-2.189l-0.308-0.037c-0.568-0.068-1.162,0.052-1.682,0.383
			c-1.196,0.761-1.272,2.21-0.789,3.543c0.586,1.617,2.239,6.095,3.03,8.237c0.247,0.668-0.046,1.415-0.68,1.738l-11.789,6
			c-0.446,0.227-0.979,0.199-1.399-0.072l-17.928-11.592l-0.397-0.257c-0.418-0.268-0.942-0.369-1.462-0.238
			c-0.997,0.252-1.33,1.233-1.35,2.262c-0.056,2.917-0.188,11.513-0.237,14.724c-0.011,0.705-0.542,1.289-1.243,1.37l-14.468,1.674
			l-23.279-6.831l-0.024-0.007c-0.72-0.209-1.519-0.266-2.357-0.128c-2.005,0.33-3.556,1.953-3.937,3.949l0,0.003
			c-0.463,2.695-0.787,5.184-1.088,7.773c-0.294,2.566-0.533,5.135-0.715,7.71c-0.365,5.15-0.51,10.326-0.344,15.529
			c0.178,5.202,0.644,10.437,1.705,15.664c1.052,5.209,2.713,10.474,5.664,15.339l0.036,0.061c0.797,1.311,2.376,2.018,3.948,1.64
			l0.004-0.001c0.276-0.093,0.361-0.147,0.524-0.22l0.412-0.211c0.265-0.143,0.518-0.292,0.767-0.447
			c0.496-0.31,0.969-0.648,1.423-1.016c0.906-0.733,1.744-1.6,2.417-2.616c0.674-1.007,1.156-2.185,1.326-3.363
			c0.185-1.179,0.047-2.324-0.239-3.331l-0.021-0.076c-0.147-0.517-0.615-0.902-1.181-0.92c-0.701-0.022-1.287,0.528-1.309,1.229
			c-0.048,1.519-0.671,2.716-1.711,3.541c-0.554,0.448-1.218,0.809-1.94,1.078c-0.004-0.002-0.007-0.003-0.011-0.004
			c-1.658-3.702-2.635-7.784-3.182-11.94c-0.641-4.755-0.759-9.627-0.601-14.496c0.167-4.872,0.627-9.754,1.297-14.608
			c0.415-3.017,0.914-6.024,1.49-9.006c0,0,0,0,0,0l19.081,5.599c0.618,0.178,1.306,0.248,1.985,0.169
			c0,0,16.976-2.143,22.458-2.818c2.325-0.286,3.571-2.974,2.939-5.229l-3.641-12.987l12.405,13.068l0.001,0.001
			c1.491,1.234,3.633,1.543,5.468,0.609c0,0,16.367-8.757,21.875-11.721c1.856-0.999,1.7-3.82,0.292-5.388l-6.866-7.654
			c0,0,11.492,3.34,15.272,4.431c0.975,0.282,2.058-0.221,2.82-1.006l15.539-16.008l0.001-0.001l0.164-0.163
			c0.301-0.304,0.531-0.694,0.647-1.155C183.836,26.831,183.164,25.622,182.06,25.126z M72.27,118.772L72.27,118.772
			C72.27,118.772,72.269,118.772,72.27,118.772L72.27,118.772z"/>
		<path class="st4" d="M143.168,111.867L86.475,79.135c-2.392-1.381-5.449-0.562-6.83,1.83c-1.381,2.392-0.562,5.449,1.83,6.83
			l54.193,31.289v59.69l-51.693,29.845l-51.693-29.845v-59.69l10.098-5.83c2.392-1.381,3.211-4.438,1.83-6.83
			c-1.38-2.391-4.438-3.211-6.83-1.83l-12.598,7.273c-1.547,0.893-2.5,2.544-2.5,4.33v65.464c0,1.786,0.953,3.437,2.5,4.33
			l56.693,32.731c0.773,0.446,1.637,0.67,2.5,0.67s1.727-0.224,2.5-0.67l56.693-32.731c1.547-0.894,2.5-2.544,2.5-4.33v-65.463
			C145.668,114.411,144.715,112.76,143.168,111.867z"/>
		<path class="st4" d="M40.898,98.472c1.817-0.247,3.465-0.069,4.892,0.617c1.424,0.665,2.694,1.925,3.46,3.465
			c0.19,0.38,0.345,0.771,0.461,1.15l0.547,1.918c0.369,1.279,0.762,2.55,1.163,3.817c0.628,1.968,1.296,3.897,2.014,5.851
			c-0.519,0.522-1.011,1.04-1.514,1.586c-0.907,0.992-1.78,2.013-2.617,3.067c-1.678,2.104-3.218,4.338-4.592,6.709
			c-2.736,4.728-4.826,10.096-5.426,15.956c-0.301,2.918-0.194,5.935,0.336,8.895c0.539,2.96,1.513,5.844,2.82,8.529
			c2.634,5.384,6.5,9.869,10.694,13.627c0.52,0.462,1.164,0.835,1.875,1.043l0.157,0.046l0.002,0.001
			c2.106,0.536,3.673,0.435,5.081,0.287c0.442-0.054,0.863-0.125,1.278-0.204l0.538,0.384c0.994,0.69,1.998,1.353,3.016,1.99
			c2.035,1.276,4.124,2.46,6.278,3.542c4.305,2.158,8.874,3.938,13.74,5.001c4.849,1.045,10.071,1.352,15.173,0.236
			c1.215-0.256,2.409-0.604,3.576-1.023c1.232,0.518,2.549,0.894,3.931,1.061c2.107,0.262,4.355-0.019,6.498-1.012
			c1.106-0.518,2.024-1.238,2.831-2.058c0.811-0.828,1.471-1.8,1.965-2.822c0.957-2.073,1.191-4.298,0.936-6.321
			c-0.094-0.748-0.263-1.464-0.466-2.162c0.969-1.761,1.747-3.621,2.275-5.539c1.38-4.877,1.345-9.904,0.506-14.59
			c-0.844-4.705-2.437-9.149-4.478-13.317c-1.968-3.967-4.309-7.714-7.198-11.11c0.02-0.05,0.037-0.096,0.061-0.15l0.59-1.305
			c0.424-0.966,0.74-2.172,0.663-3.391c-0.059-1.222-0.483-2.361-1.014-3.318c-0.521-0.954-1.072-1.74-1.655-2.527
			c-2.337-3.094-5.045-5.825-8.109-8.216c-3.064-2.374-6.512-4.399-10.381-5.647c-3.845-1.26-8.17-1.65-12.324-0.785l-0.055,0.011
			c-0.079,0.017-0.158,0.037-0.237,0.06c-1.59,0.473-2.496,2.145-2.023,3.735s2.145,2.496,3.735,2.023
			c3.013-0.895,6.294-0.961,9.518-0.166c3.224,0.782,6.362,2.299,9.261,4.231c2.895,1.934,5.601,4.296,7.899,6.924
			c0.564,0.652,1.116,1.347,1.526,1.983c0.384,0.634,0.613,1.27,0.661,1.894c0.052,0.626-0.072,1.259-0.364,1.985
			c-0.14,0.368-0.331,0.741-0.56,1.206c-0.111,0.237-0.232,0.494-0.343,0.857c-0.099,0.351-0.233,0.891-0.033,1.598l0.001,0.003
			c0.041,0.149,0.111,0.298,0.21,0.429l0.084,0.112c2.57,3.414,4.633,7.299,6.246,11.286c1.602,3.997,2.734,8.168,3.158,12.327
			c0.429,4.151,0.086,8.298-1.267,11.966c-0.108,0.298-0.234,0.586-0.355,0.876c-0.359-0.342-0.729-0.667-1.113-0.968
			c-0.233-0.18-0.545-0.262-0.854-0.192c-0.55,0.125-0.894,0.671-0.77,1.221l0.062,0.275c0.267,1.177,0.521,2.25,0.695,3.282
			c0.083,0.494,0.154,0.982,0.188,1.461c0.094,0.719,0.121,1.425,0.079,2.094c-0.009,0.662-0.089,1.29-0.187,1.862
			c-0.228,1.147-0.604,2.071-1.08,2.68c-0.22,0.32-0.481,0.555-0.737,0.784c-0.137,0.108-0.272,0.217-0.432,0.308
			c-0.176,0.114-0.229,0.138-0.385,0.219c-0.57,0.266-1.486,0.464-2.5,0.47c-1.018-0.016-2.16-0.178-3.365-0.54
			c-0.833-0.262-1.681-0.625-2.549-1.061c-1.644-0.825-3.362-1.924-5.208-3.186l-0.308-0.211c-0.454-0.309-1.053-0.382-1.592-0.143
			c-0.829,0.369-1.201,1.339-0.833,2.168c0.376,0.846,0.819,1.676,1.323,2.481c-2.847,0.029-5.757-0.459-8.615-1.304
			c-3.814-1.14-7.539-2.904-11.081-5.031c-1.772-1.064-3.5-2.224-5.17-3.455c-0.835-0.615-1.655-1.25-2.453-1.898l-1.174-0.981
			c-0.307-0.264-0.657-0.573-0.907-0.806c-0.079-0.106-0.14-0.221-0.228-0.323c-1.057-1.215-1.717-2.904-1.797-5.106
			c-0.092-2.182,0.456-4.69,1.329-7.143c1.779-4.953,4.899-9.739,8.55-13.994c3.675-4.26,8.048-8.023,12.955-10.742
			c2.456-1.339,5.071-2.39,7.77-2.862c2.688-0.474,5.476-0.329,7.993,0.748l0.024,0.01c0.504,0.216,1.101,0.026,1.383-0.46
			c0.304-0.525,0.125-1.198-0.4-1.502c-2.808-1.626-6.16-2.201-9.351-2.01c-3.212,0.183-6.31,1.037-9.226,2.208
			c-2.92,1.179-5.677,2.688-8.29,4.401c-2.616,1.713-5.083,3.646-7.389,5.769c-4.594,4.261-8.743,9.125-11.74,15.081
			c-1.464,2.989-2.697,6.263-3.052,10.033c-0.02,0.562-0.071,1.115-0.092,1.678c-1.491-1.579-2.813-3.266-3.89-5.074
			c-2.216-3.685-3.354-7.862-3.269-12.23c0.073-4.367,1.327-8.858,3.333-13.095c1.002-2.121,2.181-4.19,3.508-6.175
			c0.661-0.993,1.36-1.965,2.088-2.911c0.714-0.925,1.526-1.905,2.228-2.667l0.202-0.219c0.684-0.746,0.939-1.839,0.566-2.854
			l0-0.001c-0.55-2.388-1.045-4.935-1.465-7.425c-0.21-1.253-0.411-2.506-0.588-3.762l-0.261-1.886
			c-0.15-0.89-0.377-1.743-0.668-2.567c-1.159-3.271-3.39-6.204-6.445-8.169c-3.044-1.99-6.73-2.77-10.071-2.684l-0.176,0.004
			c-0.175,0.005-0.352,0.019-0.529,0.043c-2.689,0.365-4.572,2.841-4.207,5.53S38.21,98.838,40.898,98.472z"/>
	</g>
</g>
</svg>
